<mxfile host="app.diagrams.net" modified="2024-01-19T10:30:06.040Z" agent="Mozilla/5.0 (Windows NT 10.0; Win64; x64) AppleWebKit/537.36 (KHTML, like Gecko) Chrome/120.0.0.0 Safari/537.36" etag="6aT_LGKURrx_6T4OaStA" version="22.1.18" type="device">
  <diagram name="Page-1" id="NLgvGBogYSD5WpJMUbG7">
    <mxGraphModel dx="1900" dy="2757" grid="1" gridSize="10" guides="1" tooltips="1" connect="1" arrows="1" fold="1" page="1" pageScale="1" pageWidth="850" pageHeight="1100" math="0" shadow="0">
      <root>
        <mxCell id="0" />
        <mxCell id="1" parent="0" />
        <mxCell id="kM6if-_j94mLi7r4Guyi-32" value="" style="rounded=0;whiteSpace=wrap;html=1;" vertex="1" parent="1">
          <mxGeometry y="-2020" width="850" height="60" as="geometry" />
        </mxCell>
        <mxCell id="kM6if-_j94mLi7r4Guyi-1" value="HOMEPAGE" style="text;html=1;align=center;verticalAlign=middle;resizable=0;points=[];autosize=1;strokeColor=none;fillColor=none;" vertex="1" parent="1">
          <mxGeometry x="380" y="-2190" width="90" height="30" as="geometry" />
        </mxCell>
        <mxCell id="kM6if-_j94mLi7r4Guyi-2" value="" style="rounded=0;whiteSpace=wrap;html=1;" vertex="1" parent="1">
          <mxGeometry x="730" y="-2010" width="110" height="40" as="geometry" />
        </mxCell>
        <mxCell id="kM6if-_j94mLi7r4Guyi-3" value="" style="rounded=0;whiteSpace=wrap;html=1;" vertex="1" parent="1">
          <mxGeometry x="610" y="-2010" width="110" height="40" as="geometry" />
        </mxCell>
        <mxCell id="kM6if-_j94mLi7r4Guyi-4" value="" style="rounded=0;whiteSpace=wrap;html=1;" vertex="1" parent="1">
          <mxGeometry x="490" y="-2010" width="110" height="40" as="geometry" />
        </mxCell>
        <mxCell id="kM6if-_j94mLi7r4Guyi-5" value="" style="rounded=0;whiteSpace=wrap;html=1;" vertex="1" parent="1">
          <mxGeometry x="370" y="-2010" width="110" height="40" as="geometry" />
        </mxCell>
        <mxCell id="kM6if-_j94mLi7r4Guyi-6" value="" style="rounded=0;whiteSpace=wrap;html=1;" vertex="1" parent="1">
          <mxGeometry x="250" y="-2010" width="110" height="40" as="geometry" />
        </mxCell>
        <mxCell id="kM6if-_j94mLi7r4Guyi-7" value="" style="rounded=0;whiteSpace=wrap;html=1;" vertex="1" parent="1">
          <mxGeometry y="-2010" width="80" height="40" as="geometry" />
        </mxCell>
        <mxCell id="kM6if-_j94mLi7r4Guyi-8" value="" style="endArrow=none;html=1;rounded=0;exitX=0;exitY=1;exitDx=0;exitDy=0;" edge="1" parent="1" source="kM6if-_j94mLi7r4Guyi-7">
          <mxGeometry width="50" height="50" relative="1" as="geometry">
            <mxPoint x="30" y="-1950" as="sourcePoint" />
            <mxPoint x="80" y="-2000" as="targetPoint" />
          </mxGeometry>
        </mxCell>
        <mxCell id="kM6if-_j94mLi7r4Guyi-9" value="" style="endArrow=none;html=1;rounded=0;exitX=0;exitY=0;exitDx=0;exitDy=0;entryX=1;entryY=1;entryDx=0;entryDy=0;" edge="1" parent="1" source="kM6if-_j94mLi7r4Guyi-7" target="kM6if-_j94mLi7r4Guyi-7">
          <mxGeometry width="50" height="50" relative="1" as="geometry">
            <mxPoint x="30" y="-1930" as="sourcePoint" />
            <mxPoint x="70" y="-1960" as="targetPoint" />
            <Array as="points" />
          </mxGeometry>
        </mxCell>
        <mxCell id="kM6if-_j94mLi7r4Guyi-10" value="" style="rounded=0;whiteSpace=wrap;html=1;" vertex="1" parent="1">
          <mxGeometry y="-1950" width="840" height="250" as="geometry" />
        </mxCell>
        <mxCell id="kM6if-_j94mLi7r4Guyi-11" value="" style="endArrow=none;html=1;rounded=0;" edge="1" parent="1" target="kM6if-_j94mLi7r4Guyi-10">
          <mxGeometry width="50" height="50" relative="1" as="geometry">
            <mxPoint x="240" y="-1880" as="sourcePoint" />
            <mxPoint x="410" y="-1830" as="targetPoint" />
            <Array as="points">
              <mxPoint x="840" y="-1710" />
              <mxPoint x="240" y="-1880" />
            </Array>
          </mxGeometry>
        </mxCell>
        <mxCell id="kM6if-_j94mLi7r4Guyi-12" value="" style="endArrow=none;html=1;rounded=0;exitX=0;exitY=1;exitDx=0;exitDy=0;" edge="1" parent="1" source="kM6if-_j94mLi7r4Guyi-10">
          <mxGeometry width="50" height="50" relative="1" as="geometry">
            <mxPoint x="790" y="-1900" as="sourcePoint" />
            <mxPoint x="840" y="-1950" as="targetPoint" />
          </mxGeometry>
        </mxCell>
        <mxCell id="kM6if-_j94mLi7r4Guyi-13" value="" style="rounded=0;whiteSpace=wrap;html=1;" vertex="1" parent="1">
          <mxGeometry x="260" y="-1670" width="270" height="30" as="geometry" />
        </mxCell>
        <mxCell id="kM6if-_j94mLi7r4Guyi-14" value="" style="rounded=0;whiteSpace=wrap;html=1;" vertex="1" parent="1">
          <mxGeometry x="130" y="-1620" width="510" height="240" as="geometry" />
        </mxCell>
        <mxCell id="kM6if-_j94mLi7r4Guyi-15" value="" style="rounded=0;whiteSpace=wrap;html=1;" vertex="1" parent="1">
          <mxGeometry x="50" y="-1350" width="120" height="30" as="geometry" />
        </mxCell>
        <mxCell id="kM6if-_j94mLi7r4Guyi-16" value="" style="rounded=0;whiteSpace=wrap;html=1;" vertex="1" parent="1">
          <mxGeometry x="70" y="-1300" width="290" height="310" as="geometry" />
        </mxCell>
        <mxCell id="kM6if-_j94mLi7r4Guyi-17" value="" style="rounded=0;whiteSpace=wrap;html=1;" vertex="1" parent="1">
          <mxGeometry x="500" y="-1300" width="320" height="310" as="geometry" />
        </mxCell>
        <mxCell id="kM6if-_j94mLi7r4Guyi-18" value="" style="endArrow=none;html=1;rounded=0;exitX=0;exitY=1;exitDx=0;exitDy=0;" edge="1" parent="1" source="kM6if-_j94mLi7r4Guyi-17">
          <mxGeometry width="50" height="50" relative="1" as="geometry">
            <mxPoint x="770" y="-1250" as="sourcePoint" />
            <mxPoint x="820" y="-1300" as="targetPoint" />
          </mxGeometry>
        </mxCell>
        <mxCell id="kM6if-_j94mLi7r4Guyi-19" value="" style="endArrow=none;html=1;rounded=0;exitX=1;exitY=1;exitDx=0;exitDy=0;" edge="1" parent="1" source="kM6if-_j94mLi7r4Guyi-17">
          <mxGeometry width="50" height="50" relative="1" as="geometry">
            <mxPoint x="460" y="-1250" as="sourcePoint" />
            <mxPoint x="510" y="-1300" as="targetPoint" />
          </mxGeometry>
        </mxCell>
        <mxCell id="kM6if-_j94mLi7r4Guyi-20" value="" style="rounded=0;whiteSpace=wrap;html=1;" vertex="1" parent="1">
          <mxGeometry x="50" y="-960" width="120" height="30" as="geometry" />
        </mxCell>
        <mxCell id="kM6if-_j94mLi7r4Guyi-21" value="" style="rounded=0;whiteSpace=wrap;html=1;" vertex="1" parent="1">
          <mxGeometry x="70" y="-910" width="290" height="310" as="geometry" />
        </mxCell>
        <mxCell id="kM6if-_j94mLi7r4Guyi-22" value="" style="rounded=0;whiteSpace=wrap;html=1;" vertex="1" parent="1">
          <mxGeometry x="500" y="-910" width="320" height="310" as="geometry" />
        </mxCell>
        <mxCell id="kM6if-_j94mLi7r4Guyi-23" value="" style="endArrow=none;html=1;rounded=0;exitX=0;exitY=1;exitDx=0;exitDy=0;" edge="1" source="kM6if-_j94mLi7r4Guyi-22" parent="1">
          <mxGeometry width="50" height="50" relative="1" as="geometry">
            <mxPoint x="770" y="-860" as="sourcePoint" />
            <mxPoint x="820" y="-910" as="targetPoint" />
          </mxGeometry>
        </mxCell>
        <mxCell id="kM6if-_j94mLi7r4Guyi-24" value="" style="endArrow=none;html=1;rounded=0;exitX=1;exitY=1;exitDx=0;exitDy=0;" edge="1" source="kM6if-_j94mLi7r4Guyi-22" parent="1">
          <mxGeometry width="50" height="50" relative="1" as="geometry">
            <mxPoint x="460" y="-860" as="sourcePoint" />
            <mxPoint x="510" y="-910" as="targetPoint" />
          </mxGeometry>
        </mxCell>
        <mxCell id="kM6if-_j94mLi7r4Guyi-25" value="" style="rounded=0;whiteSpace=wrap;html=1;" vertex="1" parent="1">
          <mxGeometry x="50" y="-570" width="120" height="30" as="geometry" />
        </mxCell>
        <mxCell id="kM6if-_j94mLi7r4Guyi-26" value="" style="rounded=0;whiteSpace=wrap;html=1;" vertex="1" parent="1">
          <mxGeometry x="70" y="-520" width="290" height="310" as="geometry" />
        </mxCell>
        <mxCell id="kM6if-_j94mLi7r4Guyi-27" value="" style="rounded=0;whiteSpace=wrap;html=1;" vertex="1" parent="1">
          <mxGeometry x="500" y="-520" width="320" height="310" as="geometry" />
        </mxCell>
        <mxCell id="kM6if-_j94mLi7r4Guyi-28" value="" style="endArrow=none;html=1;rounded=0;exitX=0;exitY=1;exitDx=0;exitDy=0;" edge="1" source="kM6if-_j94mLi7r4Guyi-27" parent="1">
          <mxGeometry width="50" height="50" relative="1" as="geometry">
            <mxPoint x="770" y="-470" as="sourcePoint" />
            <mxPoint x="820" y="-520" as="targetPoint" />
          </mxGeometry>
        </mxCell>
        <mxCell id="kM6if-_j94mLi7r4Guyi-29" value="" style="endArrow=none;html=1;rounded=0;exitX=1;exitY=1;exitDx=0;exitDy=0;" edge="1" source="kM6if-_j94mLi7r4Guyi-27" parent="1">
          <mxGeometry width="50" height="50" relative="1" as="geometry">
            <mxPoint x="460" y="-470" as="sourcePoint" />
            <mxPoint x="510" y="-520" as="targetPoint" />
          </mxGeometry>
        </mxCell>
        <mxCell id="kM6if-_j94mLi7r4Guyi-30" value="" style="rounded=0;whiteSpace=wrap;html=1;" vertex="1" parent="1">
          <mxGeometry y="-170" width="850" height="90" as="geometry" />
        </mxCell>
        <mxCell id="kM6if-_j94mLi7r4Guyi-31" value="" style="rounded=0;whiteSpace=wrap;html=1;" vertex="1" parent="1">
          <mxGeometry x="365" y="-155" width="120" height="60" as="geometry" />
        </mxCell>
        <mxCell id="kM6if-_j94mLi7r4Guyi-33" value="" style="endArrow=none;html=1;rounded=0;exitX=0;exitY=0;exitDx=0;exitDy=0;" edge="1" parent="1" source="kM6if-_j94mLi7r4Guyi-7" target="kM6if-_j94mLi7r4Guyi-32">
          <mxGeometry width="50" height="50" relative="1" as="geometry">
            <mxPoint y="-2010" as="sourcePoint" />
            <mxPoint x="70" y="-1960" as="targetPoint" />
            <Array as="points" />
          </mxGeometry>
        </mxCell>
        <mxCell id="kM6if-_j94mLi7r4Guyi-34" value="Sri lankan wildlife" style="text;html=1;align=center;verticalAlign=middle;resizable=0;points=[];autosize=1;strokeColor=none;fillColor=none;" vertex="1" parent="1">
          <mxGeometry x="365" y="20" width="120" height="30" as="geometry" />
        </mxCell>
        <mxCell id="kM6if-_j94mLi7r4Guyi-35" value="" style="rounded=0;whiteSpace=wrap;html=1;" vertex="1" parent="1">
          <mxGeometry x="730" y="140" width="110" height="40" as="geometry" />
        </mxCell>
        <mxCell id="kM6if-_j94mLi7r4Guyi-36" value="" style="rounded=0;whiteSpace=wrap;html=1;" vertex="1" parent="1">
          <mxGeometry x="610" y="140" width="110" height="40" as="geometry" />
        </mxCell>
        <mxCell id="kM6if-_j94mLi7r4Guyi-37" value="" style="rounded=0;whiteSpace=wrap;html=1;" vertex="1" parent="1">
          <mxGeometry x="490" y="140" width="110" height="40" as="geometry" />
        </mxCell>
        <mxCell id="kM6if-_j94mLi7r4Guyi-38" value="" style="rounded=0;whiteSpace=wrap;html=1;" vertex="1" parent="1">
          <mxGeometry x="370" y="140" width="110" height="40" as="geometry" />
        </mxCell>
        <mxCell id="kM6if-_j94mLi7r4Guyi-39" value="" style="rounded=0;whiteSpace=wrap;html=1;" vertex="1" parent="1">
          <mxGeometry x="250" y="140" width="110" height="40" as="geometry" />
        </mxCell>
        <mxCell id="kM6if-_j94mLi7r4Guyi-40" value="" style="rounded=0;whiteSpace=wrap;html=1;" vertex="1" parent="1">
          <mxGeometry y="140" width="80" height="40" as="geometry" />
        </mxCell>
        <mxCell id="kM6if-_j94mLi7r4Guyi-41" value="" style="endArrow=none;html=1;rounded=0;exitX=0;exitY=1;exitDx=0;exitDy=0;" edge="1" source="kM6if-_j94mLi7r4Guyi-40" parent="1">
          <mxGeometry width="50" height="50" relative="1" as="geometry">
            <mxPoint x="30" y="200" as="sourcePoint" />
            <mxPoint x="80" y="150" as="targetPoint" />
          </mxGeometry>
        </mxCell>
        <mxCell id="kM6if-_j94mLi7r4Guyi-42" value="" style="endArrow=none;html=1;rounded=0;exitX=0;exitY=0;exitDx=0;exitDy=0;entryX=1;entryY=1;entryDx=0;entryDy=0;" edge="1" source="kM6if-_j94mLi7r4Guyi-40" target="kM6if-_j94mLi7r4Guyi-40" parent="1">
          <mxGeometry width="50" height="50" relative="1" as="geometry">
            <mxPoint x="30" y="220" as="sourcePoint" />
            <mxPoint x="70" y="190" as="targetPoint" />
            <Array as="points" />
          </mxGeometry>
        </mxCell>
        <mxCell id="kM6if-_j94mLi7r4Guyi-43" value="" style="rounded=0;whiteSpace=wrap;html=1;" vertex="1" parent="1">
          <mxGeometry y="200" width="840" height="250" as="geometry" />
        </mxCell>
        <mxCell id="kM6if-_j94mLi7r4Guyi-44" value="" style="endArrow=none;html=1;rounded=0;" edge="1" target="kM6if-_j94mLi7r4Guyi-43" parent="1">
          <mxGeometry width="50" height="50" relative="1" as="geometry">
            <mxPoint x="240" y="270" as="sourcePoint" />
            <mxPoint x="410" y="320" as="targetPoint" />
            <Array as="points">
              <mxPoint x="840" y="440" />
              <mxPoint x="240" y="270" />
            </Array>
          </mxGeometry>
        </mxCell>
        <mxCell id="kM6if-_j94mLi7r4Guyi-45" value="" style="endArrow=none;html=1;rounded=0;exitX=0;exitY=1;exitDx=0;exitDy=0;" edge="1" source="kM6if-_j94mLi7r4Guyi-43" parent="1">
          <mxGeometry width="50" height="50" relative="1" as="geometry">
            <mxPoint x="790" y="250" as="sourcePoint" />
            <mxPoint x="840" y="200" as="targetPoint" />
          </mxGeometry>
        </mxCell>
        <mxCell id="kM6if-_j94mLi7r4Guyi-46" value="" style="endArrow=none;html=1;rounded=0;exitX=0;exitY=0;exitDx=0;exitDy=0;" edge="1" source="kM6if-_j94mLi7r4Guyi-40" parent="1">
          <mxGeometry width="50" height="50" relative="1" as="geometry">
            <mxPoint y="140" as="sourcePoint" />
            <mxPoint y="140" as="targetPoint" />
            <Array as="points" />
          </mxGeometry>
        </mxCell>
        <mxCell id="kM6if-_j94mLi7r4Guyi-47" value="" style="rounded=0;whiteSpace=wrap;html=1;" vertex="1" parent="1">
          <mxGeometry x="50" y="480" width="120" height="30" as="geometry" />
        </mxCell>
        <mxCell id="kM6if-_j94mLi7r4Guyi-48" value="" style="rounded=0;whiteSpace=wrap;html=1;" vertex="1" parent="1">
          <mxGeometry x="70" y="530" width="290" height="310" as="geometry" />
        </mxCell>
        <mxCell id="kM6if-_j94mLi7r4Guyi-49" value="" style="rounded=0;whiteSpace=wrap;html=1;" vertex="1" parent="1">
          <mxGeometry x="500" y="530" width="320" height="310" as="geometry" />
        </mxCell>
        <mxCell id="kM6if-_j94mLi7r4Guyi-50" value="" style="endArrow=none;html=1;rounded=0;exitX=0;exitY=1;exitDx=0;exitDy=0;" edge="1" source="kM6if-_j94mLi7r4Guyi-49" parent="1">
          <mxGeometry width="50" height="50" relative="1" as="geometry">
            <mxPoint x="770" y="580" as="sourcePoint" />
            <mxPoint x="820" y="530" as="targetPoint" />
          </mxGeometry>
        </mxCell>
        <mxCell id="kM6if-_j94mLi7r4Guyi-51" value="" style="endArrow=none;html=1;rounded=0;exitX=1;exitY=1;exitDx=0;exitDy=0;" edge="1" source="kM6if-_j94mLi7r4Guyi-49" parent="1">
          <mxGeometry width="50" height="50" relative="1" as="geometry">
            <mxPoint x="460" y="580" as="sourcePoint" />
            <mxPoint x="510" y="530" as="targetPoint" />
          </mxGeometry>
        </mxCell>
        <mxCell id="kM6if-_j94mLi7r4Guyi-52" value="" style="rounded=0;whiteSpace=wrap;html=1;" vertex="1" parent="1">
          <mxGeometry x="50" y="870" width="120" height="30" as="geometry" />
        </mxCell>
        <mxCell id="kM6if-_j94mLi7r4Guyi-53" value="" style="rounded=0;whiteSpace=wrap;html=1;" vertex="1" parent="1">
          <mxGeometry x="70" y="920" width="290" height="310" as="geometry" />
        </mxCell>
        <mxCell id="kM6if-_j94mLi7r4Guyi-54" value="" style="rounded=0;whiteSpace=wrap;html=1;" vertex="1" parent="1">
          <mxGeometry x="500" y="920" width="320" height="310" as="geometry" />
        </mxCell>
        <mxCell id="kM6if-_j94mLi7r4Guyi-55" value="" style="endArrow=none;html=1;rounded=0;exitX=0;exitY=1;exitDx=0;exitDy=0;" edge="1" source="kM6if-_j94mLi7r4Guyi-54" parent="1">
          <mxGeometry width="50" height="50" relative="1" as="geometry">
            <mxPoint x="770" y="970" as="sourcePoint" />
            <mxPoint x="820" y="920" as="targetPoint" />
          </mxGeometry>
        </mxCell>
        <mxCell id="kM6if-_j94mLi7r4Guyi-56" value="" style="endArrow=none;html=1;rounded=0;exitX=1;exitY=1;exitDx=0;exitDy=0;" edge="1" source="kM6if-_j94mLi7r4Guyi-54" parent="1">
          <mxGeometry width="50" height="50" relative="1" as="geometry">
            <mxPoint x="460" y="970" as="sourcePoint" />
            <mxPoint x="510" y="920" as="targetPoint" />
          </mxGeometry>
        </mxCell>
        <mxCell id="kM6if-_j94mLi7r4Guyi-57" value="" style="rounded=0;whiteSpace=wrap;html=1;" vertex="1" parent="1">
          <mxGeometry x="380" y="1340" width="120" height="30" as="geometry" />
        </mxCell>
        <mxCell id="kM6if-_j94mLi7r4Guyi-58" value="" style="rounded=0;whiteSpace=wrap;html=1;" vertex="1" parent="1">
          <mxGeometry x="210" y="1410" width="440" height="370" as="geometry" />
        </mxCell>
        <mxCell id="kM6if-_j94mLi7r4Guyi-59" value="" style="rounded=0;whiteSpace=wrap;html=1;" vertex="1" parent="1">
          <mxGeometry y="1830" width="850" height="90" as="geometry" />
        </mxCell>
        <mxCell id="kM6if-_j94mLi7r4Guyi-60" value="" style="rounded=0;whiteSpace=wrap;html=1;" vertex="1" parent="1">
          <mxGeometry x="365" y="1845" width="120" height="60" as="geometry" />
        </mxCell>
        <mxCell id="kM6if-_j94mLi7r4Guyi-61" value="" style="rounded=0;whiteSpace=wrap;html=1;" vertex="1" parent="1">
          <mxGeometry x="735" y="2090" width="110" height="40" as="geometry" />
        </mxCell>
        <mxCell id="kM6if-_j94mLi7r4Guyi-62" value="" style="rounded=0;whiteSpace=wrap;html=1;" vertex="1" parent="1">
          <mxGeometry x="615" y="2090" width="110" height="40" as="geometry" />
        </mxCell>
        <mxCell id="kM6if-_j94mLi7r4Guyi-63" value="" style="rounded=0;whiteSpace=wrap;html=1;" vertex="1" parent="1">
          <mxGeometry x="495" y="2090" width="110" height="40" as="geometry" />
        </mxCell>
        <mxCell id="kM6if-_j94mLi7r4Guyi-64" value="" style="rounded=0;whiteSpace=wrap;html=1;" vertex="1" parent="1">
          <mxGeometry x="375" y="2090" width="110" height="40" as="geometry" />
        </mxCell>
        <mxCell id="kM6if-_j94mLi7r4Guyi-65" value="" style="rounded=0;whiteSpace=wrap;html=1;" vertex="1" parent="1">
          <mxGeometry x="255" y="2090" width="110" height="40" as="geometry" />
        </mxCell>
        <mxCell id="kM6if-_j94mLi7r4Guyi-66" value="" style="rounded=0;whiteSpace=wrap;html=1;" vertex="1" parent="1">
          <mxGeometry x="5" y="2090" width="80" height="40" as="geometry" />
        </mxCell>
        <mxCell id="kM6if-_j94mLi7r4Guyi-67" value="" style="endArrow=none;html=1;rounded=0;exitX=0;exitY=1;exitDx=0;exitDy=0;" edge="1" source="kM6if-_j94mLi7r4Guyi-66" parent="1">
          <mxGeometry width="50" height="50" relative="1" as="geometry">
            <mxPoint x="35" y="2150" as="sourcePoint" />
            <mxPoint x="85" y="2100" as="targetPoint" />
          </mxGeometry>
        </mxCell>
        <mxCell id="kM6if-_j94mLi7r4Guyi-68" value="" style="endArrow=none;html=1;rounded=0;exitX=0;exitY=0;exitDx=0;exitDy=0;entryX=1;entryY=1;entryDx=0;entryDy=0;" edge="1" source="kM6if-_j94mLi7r4Guyi-66" target="kM6if-_j94mLi7r4Guyi-66" parent="1">
          <mxGeometry width="50" height="50" relative="1" as="geometry">
            <mxPoint x="35" y="2170" as="sourcePoint" />
            <mxPoint x="75" y="2140" as="targetPoint" />
            <Array as="points" />
          </mxGeometry>
        </mxCell>
        <mxCell id="kM6if-_j94mLi7r4Guyi-69" value="" style="rounded=0;whiteSpace=wrap;html=1;" vertex="1" parent="1">
          <mxGeometry x="5" y="2150" width="840" height="250" as="geometry" />
        </mxCell>
        <mxCell id="kM6if-_j94mLi7r4Guyi-70" value="" style="endArrow=none;html=1;rounded=0;" edge="1" target="kM6if-_j94mLi7r4Guyi-69" parent="1">
          <mxGeometry width="50" height="50" relative="1" as="geometry">
            <mxPoint x="245" y="2220" as="sourcePoint" />
            <mxPoint x="415" y="2270" as="targetPoint" />
            <Array as="points">
              <mxPoint x="845" y="2390" />
              <mxPoint x="245" y="2220" />
            </Array>
          </mxGeometry>
        </mxCell>
        <mxCell id="kM6if-_j94mLi7r4Guyi-71" value="" style="endArrow=none;html=1;rounded=0;exitX=0;exitY=1;exitDx=0;exitDy=0;" edge="1" source="kM6if-_j94mLi7r4Guyi-69" parent="1">
          <mxGeometry width="50" height="50" relative="1" as="geometry">
            <mxPoint x="795" y="2200" as="sourcePoint" />
            <mxPoint x="845" y="2150" as="targetPoint" />
          </mxGeometry>
        </mxCell>
        <mxCell id="kM6if-_j94mLi7r4Guyi-72" value="" style="endArrow=none;html=1;rounded=0;exitX=0;exitY=0;exitDx=0;exitDy=0;" edge="1" source="kM6if-_j94mLi7r4Guyi-66" parent="1">
          <mxGeometry width="50" height="50" relative="1" as="geometry">
            <mxPoint x="5" y="2090" as="sourcePoint" />
            <mxPoint x="5" y="2090" as="targetPoint" />
            <Array as="points" />
          </mxGeometry>
        </mxCell>
        <mxCell id="kM6if-_j94mLi7r4Guyi-73" value="Conservation" style="text;html=1;align=center;verticalAlign=middle;resizable=0;points=[];autosize=1;strokeColor=none;fillColor=none;" vertex="1" parent="1">
          <mxGeometry x="365" y="1990" width="90" height="30" as="geometry" />
        </mxCell>
        <mxCell id="kM6if-_j94mLi7r4Guyi-74" value="" style="rounded=0;whiteSpace=wrap;html=1;" vertex="1" parent="1">
          <mxGeometry x="290" y="2440" width="280" height="40" as="geometry" />
        </mxCell>
        <mxCell id="kM6if-_j94mLi7r4Guyi-75" value="" style="rounded=0;whiteSpace=wrap;html=1;" vertex="1" parent="1">
          <mxGeometry x="140" y="2570" width="570" height="380" as="geometry" />
        </mxCell>
        <mxCell id="kM6if-_j94mLi7r4Guyi-76" value="" style="rounded=0;whiteSpace=wrap;html=1;" vertex="1" parent="1">
          <mxGeometry x="60" y="3020" width="180" height="140" as="geometry" />
        </mxCell>
        <mxCell id="kM6if-_j94mLi7r4Guyi-77" value="" style="rounded=0;whiteSpace=wrap;html=1;" vertex="1" parent="1">
          <mxGeometry x="255" y="3020" width="180" height="140" as="geometry" />
        </mxCell>
        <mxCell id="kM6if-_j94mLi7r4Guyi-78" value="" style="rounded=0;whiteSpace=wrap;html=1;" vertex="1" parent="1">
          <mxGeometry x="450" y="3020" width="180" height="140" as="geometry" />
        </mxCell>
        <mxCell id="kM6if-_j94mLi7r4Guyi-79" value="" style="rounded=0;whiteSpace=wrap;html=1;" vertex="1" parent="1">
          <mxGeometry x="640" y="3020" width="180" height="140" as="geometry" />
        </mxCell>
        <mxCell id="kM6if-_j94mLi7r4Guyi-80" value="" style="rounded=0;whiteSpace=wrap;html=1;" vertex="1" parent="1">
          <mxGeometry x="-15" y="3230" width="850" height="90" as="geometry" />
        </mxCell>
        <mxCell id="kM6if-_j94mLi7r4Guyi-81" value="" style="rounded=0;whiteSpace=wrap;html=1;" vertex="1" parent="1">
          <mxGeometry x="370" y="3240" width="120" height="60" as="geometry" />
        </mxCell>
      </root>
    </mxGraphModel>
  </diagram>
</mxfile>
